<svg xmlns="http://www.w3.org/2000/svg" viewBox="0 0 1200 630" width="1200" height="630">
  <defs>
    <linearGradient id="bg" x1="0" y1="0" x2="0" y2="1">
      <stop offset="0" stop-color="#15151f"/>
      <stop offset="1" stop-color="#0a0a0f"/>
    </linearGradient>
    <pattern id="grain" x="0" y="0" width="120" height="40" patternUnits="userSpaceOnUse">
      <path d="M0 20 Q30 5 60 20 T120 20" stroke="#1d1d28" stroke-width="1" fill="none"/>
      <path d="M0 30 Q30 18 60 30 T120 30" stroke="#1d1d28" stroke-width="1" fill="none"/>
    </pattern>
  </defs>
  <rect width="1200" height="630" fill="url(#bg)"/>
  <rect width="1200" height="630" fill="url(#grain)" opacity="0.45"/>

  <!-- Saw icon -->
  <g transform="translate(120 165)" stroke="#d4a574" fill="none" stroke-linecap="round" stroke-linejoin="round">
    <rect x="0" y="60" width="260" height="44" rx="6" fill="#d4a574" fill-opacity="0.18" stroke-width="3"/>
    <path d="M10 104 L20 130 L30 104 L40 130 L50 104 L60 130 L70 104 L80 130 L90 104 L100 130 L110 104 L120 130 L130 104 L140 130 L150 104 L160 130 L170 104 L180 130 L190 104 L200 130 L210 104 L220 130 L230 104 L240 130 L250 104"
          stroke-width="3" fill="#d4a574" fill-opacity="0.3"/>
    <rect x="-30" y="40" width="50" height="84" rx="10" fill="#5a3a1c" stroke-width="3"/>
  </g>

  <text x="430" y="240" font-family="-apple-system, Segoe UI, Roboto, sans-serif" font-size="120" font-weight="800" fill="#d4a574" letter-spacing="2">Carpenter</text>
  <text x="430" y="305" font-family="-apple-system, Segoe UI, Roboto, sans-serif" font-size="34" fill="#9a9486">Construction Carpentry Resources &amp; Tools</text>

  <g font-family="-apple-system, Segoe UI, Roboto, sans-serif" font-size="26" fill="#e8e4dc">
    <text x="430" y="395">• Framing, joinery, roofing, decks &amp; tools</text>
    <text x="430" y="435">• Live calculators with real construction math</text>
    <text x="430" y="475">• Interactive wall framing visualizer</text>
  </g>

  <text x="120" y="580" font-family="ui-monospace, SFMono-Regular, Menlo, monospace" font-size="20" fill="#8d6f4d">guildmasterdev.github.io/Carpenter</text>
</svg>
